<svg width="150" height="150" viewBox="0 0 150 150" fill="none" xmlns="http://www.w3.org/2000/svg">
<path d="M135 0C143.284 1.93277e-06 150 6.71573 150 15V135C150 143.284 143.284 150 135 150H15C6.71573 150 1.20806e-07 143.284 0 135V15C1.9329e-06 6.71573 6.71573 1.20798e-07 15 0H135ZM29.9004 33L26.5 52.4004H43L34.0996 103H54.0996L63 52.4004H79.5L82.9004 33H29.9004ZM91.8809 33L79.5801 103H86.5801L91.9805 72H122.98L124.181 65.4004H93.1807L97.6807 39.5996H130.181L131.381 33H91.8809Z" fill="#04C147"/>
</svg>
