<svg width="93" height="93" viewBox="0 0 93 93" fill="none" xmlns="http://www.w3.org/2000/svg">
<path d="M32.1045 5.85742C39.9149 -1.95273 52.5783 -1.95276 60.3887 5.85742L86.6357 32.1045C94.4461 39.9149 94.446 52.5782 86.6357 60.3887L60.3887 86.6357C52.5782 94.4462 39.915 94.4462 32.1045 86.6357L5.85742 60.3887C-1.95283 52.5782 -1.95299 39.9149 5.85742 32.1045L32.1045 5.85742ZM45.7002 15.6729C43.8174 15.6729 41.9948 16.3404 40.5566 17.5557L40.541 17.5684L23.168 32.457C22.2831 33.205 21.5718 34.1375 21.084 35.1885C20.5963 36.2396 20.3436 37.3852 20.3438 38.5439V60.9004C20.3439 63.0135 21.1835 65.04 22.6777 66.5342C24.172 68.0284 26.1984 68.8681 28.3115 68.8682H63.0879C65.201 68.8681 67.2285 68.0284 68.7227 66.5342C70.2165 65.04 71.0565 63.0133 71.0566 60.9004V38.5439C71.0568 37.3852 70.8041 36.2396 70.3164 35.1885C69.8896 34.2687 69.2913 33.44 68.5557 32.7461L68.2314 32.457L50.8594 17.5684L50.8438 17.5557L50.5693 17.334C49.1774 16.2592 47.4654 15.673 45.7002 15.6729ZM45.7002 21.6729C46.1069 21.673 46.5027 21.7988 46.833 22.0312L46.9707 22.1377L64.3428 37.0264C64.3479 37.0307 64.3533 37.0347 64.3584 37.0391C64.5769 37.2237 64.7526 37.4544 64.873 37.7139C64.9935 37.9734 65.0566 38.2568 65.0566 38.543V60.9004C65.0565 61.422 64.8482 61.923 64.4795 62.292C64.1105 62.6608 63.6095 62.8681 63.0879 62.8682H56.1514V45.9961C56.1512 44.5418 55.5732 43.1465 54.5449 42.1182C53.5165 41.09 52.1212 40.5117 50.667 40.5117H40.7314C39.2772 40.5118 37.8819 41.0898 36.8535 42.1182C35.8252 43.1465 35.2472 44.5418 35.2471 45.9961V62.8682H28.3115C27.7897 62.8681 27.2889 62.661 26.9199 62.292C26.5509 61.923 26.3439 61.4222 26.3438 60.9004V38.543C26.3437 38.2568 26.4059 37.9734 26.5264 37.7139C26.6468 37.4545 26.8226 37.2237 27.041 37.0391C27.046 37.0349 27.0517 37.0306 27.0566 37.0264L44.4297 22.1377C44.7848 21.8377 45.2353 21.6729 45.7002 21.6729ZM50.1514 62.8682H41.2471V46.5117H50.1514V62.8682Z" fill="#04C147"/>
</svg>
