<svg width="433" height="69" viewBox="0 0 433 69" fill="none" xmlns="http://www.w3.org/2000/svg">
<path d="M42.5897 0.499996L40.0397 15.05H27.6647L20.9897 53H5.98973L12.6647 15.05H0.289734L2.83973 0.499996H42.5897ZM55.8266 14.45C61.6266 14.45 66.0766 16.375 69.1766 20.225C72.3267 24.075 73.4267 28.7 72.4767 34.1C72.2267 35.7 71.7517 37.325 71.0517 38.975H46.6016C47.4016 41.475 49.6266 42.725 53.2766 42.725C56.1266 42.725 58.4266 41.925 60.1766 40.325L68.2017 48.425C63.8517 52.175 58.4516 54.05 52.0016 54.05C45.2516 54.05 40.2516 52.075 37.0016 48.125C33.7516 44.175 32.6266 39.3 33.6266 33.5C34.5266 28 37.0516 23.45 41.2016 19.85C45.3516 16.25 50.2266 14.45 55.8266 14.45ZM47.9516 30.05H60.3266C60.1266 27.05 58.4516 25.55 55.3016 25.55C51.9516 25.55 49.5016 27.05 47.9516 30.05ZM103.807 14.45C107.807 14.45 110.832 15.925 112.882 18.875C114.982 21.775 115.557 25.925 114.607 31.325L110.782 53H96.9067L100.432 32.825C101.032 29.475 99.7817 27.8 96.6817 27.8C93.4817 27.8 91.4817 29.6 90.6817 33.2L87.1567 53H73.2817L79.8817 15.5H93.7567L93.0817 19.175C95.9817 16.025 99.5567 14.45 103.807 14.45ZM148.45 15.5H162.325L155.725 53H141.85L142.45 49.7C139.55 52.6 136.05 54.05 131.95 54.05C126.95 54.05 123.175 52.1 120.625 48.2C118.125 44.3 117.25 39.6 118 34.1C118.75 28.65 120.875 24.025 124.375 20.225C127.925 16.375 132.3 14.45 137.5 14.45C142.3 14.45 145.7 16.2 147.7 19.7L148.45 15.5ZM137.275 41.3C139.325 41.3 141.025 40.675 142.375 39.425C143.775 38.175 144.675 36.525 145.075 34.475L145.15 34.25C145.5 32.2 145.2 30.525 144.25 29.225C143.3 27.875 141.8 27.2 139.75 27.2C137.7 27.2 135.95 27.85 134.5 29.15C133.05 30.45 132.15 32.15 131.8 34.25C131.45 36.3 131.75 38 132.7 39.35C133.65 40.65 135.175 41.3 137.275 41.3ZM192.283 14.45C196.283 14.45 199.308 15.925 201.358 18.875C203.458 21.775 204.033 25.925 203.083 31.325L199.258 53H185.383L188.908 32.825C189.508 29.475 188.258 27.8 185.158 27.8C181.958 27.8 179.958 29.6 179.158 33.2L175.633 53H161.758L168.358 15.5H182.233L181.558 19.175C184.458 16.025 188.033 14.45 192.283 14.45ZM226.048 28.7L224.623 36.8C224.323 38.65 224.673 39.775 225.673 40.175C226.673 40.575 228.723 40.7 231.823 40.55L229.648 53C222.148 54.15 216.823 53.45 213.673 50.9C210.523 48.35 209.498 43.9 210.598 37.55L212.173 28.7H206.923L209.248 15.5H214.498L215.623 9.125L230.173 5L228.373 15.5H236.248L233.923 28.7H226.048ZM275.877 5.45H251.502L248.127 24.8H271.377L270.477 29.75H247.227L243.177 53H237.927L247.152 0.499996H276.777L275.877 5.45ZM293.551 53.9C288.251 53.9 283.876 52.075 280.426 48.425C277.026 44.775 275.851 39.925 276.901 33.875C277.951 27.825 280.751 23.1 285.301 19.7C289.901 16.3 294.851 14.6 300.151 14.6C305.301 14.6 309.526 16.45 312.826 20.15C316.176 23.8 317.326 28.6 316.276 34.55C315.576 38.75 314.001 42.35 311.551 45.35C309.101 48.35 306.326 50.525 303.226 51.875C300.176 53.225 296.951 53.9 293.551 53.9ZM294.001 49.1C298.001 49.1 301.701 47.775 305.101 45.125C308.501 42.475 310.601 38.775 311.401 34.025C312.201 29.475 311.351 25.9 308.851 23.3C306.401 20.7 303.201 19.4 299.251 19.4C295.251 19.45 291.551 20.775 288.151 23.375C284.801 25.975 282.701 29.6 281.851 34.25C281.051 38.95 281.876 42.625 284.326 45.275C286.826 47.875 290.051 49.15 294.001 49.1ZM331.983 20.75C335.333 16.5 339.633 14.55 344.883 14.9L343.983 19.7C340.583 19.7 337.583 20.7 334.983 22.7C332.383 24.7 330.708 27.85 329.958 32.15L326.283 53H321.333L327.933 15.5H332.883L331.983 20.75ZM382.525 15.5H387.475L381.175 51.5C380.175 57.05 377.725 61.325 373.825 64.325C369.925 67.375 365.2 68.9 359.65 68.9C355.7 68.9 352.3 68.1 349.45 66.5C346.6 64.9 344.5 62.65 343.15 59.75L347.575 57.5C349.375 61.9 353.475 64.1 359.875 64.1C364.425 64.1 368.1 63 370.9 60.8C373.75 58.6 375.525 55.5 376.225 51.5L377.125 46.475C373.025 51.425 367.75 53.9 361.3 53.9C355.65 53.9 351.25 51.925 348.1 47.975C345 44.025 343.875 39.2 344.725 33.5C345.575 27.75 348.1 23.175 352.3 19.775C356.55 16.325 361.175 14.6 366.175 14.6C369.375 14.6 372.325 15.375 375.025 16.925C377.775 18.425 379.8 20.6 381.1 23.45L382.525 15.5ZM379.15 34.775V34.625L379.225 34.25C379.975 29.7 379.025 26.1 376.375 23.45C373.725 20.75 370.45 19.4 366.55 19.4C362.65 19.4 359.025 20.725 355.675 23.375C352.375 25.975 350.375 29.475 349.675 33.875C348.975 38.225 349.8 41.85 352.15 44.75C354.55 47.65 357.9 49.1 362.2 49.1C366.25 49.1 369.875 47.8 373.075 45.2C376.275 42.55 378.3 39.075 379.15 34.775ZM414.9 14.6C420.55 14.6 424.85 16.55 427.8 20.45C430.8 24.35 431.75 29 430.65 34.4C430.5 35.3 430.3 36.075 430.05 36.725H397.275C397.125 40.525 398.175 43.55 400.425 45.8C402.725 48 405.85 49.1 409.8 49.1C415.55 49.1 419.975 46.95 423.075 42.65L426.975 45.2C425.175 47.95 422.625 50.1 419.325 51.65C416.075 53.15 412.675 53.9 409.125 53.9C403.325 53.9 398.875 51.95 395.775 48.05C392.675 44.15 391.625 39.3 392.625 33.5C393.575 28 396.15 23.475 400.35 19.925C404.6 16.375 409.45 14.6 414.9 14.6ZM398.025 31.925H425.925C426.225 27.825 425.325 24.725 423.225 22.625C421.125 20.475 418.25 19.4 414.6 19.4C410.65 19.4 407.175 20.55 404.175 22.85C401.225 25.1 399.175 28.125 398.025 31.925Z" fill="white"/>
</svg>
