<svg width="561" height="96" viewBox="0 0 561 96" fill="none" xmlns="http://www.w3.org/2000/svg">
<path d="M168.59 16.5L166.04 31.05H153.665L146.99 69H131.99L138.665 31.05H126.29L128.84 16.5H168.59ZM181.827 30.45C187.627 30.45 192.077 32.375 195.177 36.225C198.327 40.075 199.427 44.7 198.477 50.1C198.227 51.7 197.752 53.325 197.052 54.975H172.602C173.402 57.475 175.627 58.725 179.277 58.725C182.127 58.725 184.427 57.925 186.177 56.325L194.202 64.425C189.852 68.175 184.452 70.05 178.002 70.05C171.252 70.05 166.252 68.075 163.002 64.125C159.752 60.175 158.627 55.3 159.627 49.5C160.527 44 163.052 39.45 167.202 35.85C171.352 32.25 176.227 30.45 181.827 30.45ZM173.952 46.05H186.327C186.127 43.05 184.452 41.55 181.302 41.55C177.952 41.55 175.502 43.05 173.952 46.05ZM229.807 30.45C233.807 30.45 236.832 31.925 238.882 34.875C240.982 37.775 241.557 41.925 240.607 47.325L236.782 69H222.907L226.432 48.825C227.032 45.475 225.782 43.8 222.682 43.8C219.482 43.8 217.482 45.6 216.682 49.2L213.157 69H199.282L205.882 31.5H219.757L219.082 35.175C221.982 32.025 225.557 30.45 229.807 30.45ZM274.45 31.5H288.325L281.725 69H267.85L268.45 65.7C265.55 68.6 262.05 70.05 257.95 70.05C252.95 70.05 249.175 68.1 246.625 64.2C244.125 60.3 243.25 55.6 244 50.1C244.75 44.65 246.875 40.025 250.375 36.225C253.925 32.375 258.3 30.45 263.5 30.45C268.3 30.45 271.7 32.2 273.7 35.7L274.45 31.5ZM263.275 57.3C265.325 57.3 267.025 56.675 268.375 55.425C269.775 54.175 270.675 52.525 271.075 50.475L271.15 50.25C271.5 48.2 271.2 46.525 270.25 45.225C269.3 43.875 267.8 43.2 265.75 43.2C263.7 43.2 261.95 43.85 260.5 45.15C259.05 46.45 258.15 48.15 257.8 50.25C257.45 52.3 257.75 54 258.7 55.35C259.65 56.65 261.175 57.3 263.275 57.3ZM318.283 30.45C322.283 30.45 325.308 31.925 327.358 34.875C329.458 37.775 330.033 41.925 329.083 47.325L325.258 69H311.383L314.908 48.825C315.508 45.475 314.258 43.8 311.158 43.8C307.958 43.8 305.958 45.6 305.158 49.2L301.633 69H287.758L294.358 31.5H308.233L307.558 35.175C310.458 32.025 314.033 30.45 318.283 30.45ZM352.048 44.7L350.623 52.8C350.323 54.65 350.673 55.775 351.673 56.175C352.673 56.575 354.723 56.7 357.823 56.55L355.648 69C348.148 70.15 342.823 69.45 339.673 66.9C336.523 64.35 335.498 59.9 336.598 53.55L338.173 44.7H332.923L335.248 31.5H340.498L341.623 25.125L356.173 21L354.373 31.5H362.248L359.923 44.7H352.048ZM401.877 21.45H377.502L374.127 40.8H397.377L396.477 45.75H373.227L369.177 69H363.927L373.152 16.5H402.777L401.877 21.45ZM419.551 69.9C414.251 69.9 409.876 68.075 406.426 64.425C403.026 60.775 401.851 55.925 402.901 49.875C403.951 43.825 406.751 39.1 411.301 35.7C415.901 32.3 420.851 30.6 426.151 30.6C431.301 30.6 435.526 32.45 438.826 36.15C442.176 39.8 443.326 44.6 442.276 50.55C441.576 54.75 440.001 58.35 437.551 61.35C435.101 64.35 432.326 66.525 429.226 67.875C426.176 69.225 422.951 69.9 419.551 69.9ZM420.001 65.1C424.001 65.1 427.701 63.775 431.101 61.125C434.501 58.475 436.601 54.775 437.401 50.025C438.201 45.475 437.351 41.9 434.851 39.3C432.401 36.7 429.201 35.4 425.251 35.4C421.251 35.45 417.551 36.775 414.151 39.375C410.801 41.975 408.701 45.6 407.851 50.25C407.051 54.95 407.876 58.625 410.326 61.275C412.826 63.875 416.051 65.15 420.001 65.1ZM457.983 36.75C461.333 32.5 465.633 30.55 470.883 30.9L469.983 35.7C466.583 35.7 463.583 36.7 460.983 38.7C458.383 40.7 456.708 43.85 455.958 48.15L452.283 69H447.333L453.933 31.5H458.883L457.983 36.75ZM508.525 31.5H513.475L507.175 67.5C506.175 73.05 503.725 77.325 499.825 80.325C495.925 83.375 491.2 84.9 485.65 84.9C481.7 84.9 478.3 84.1 475.45 82.5C472.6 80.9 470.5 78.65 469.15 75.75L473.575 73.5C475.375 77.9 479.475 80.1 485.875 80.1C490.425 80.1 494.1 79 496.9 76.8C499.75 74.6 501.525 71.5 502.225 67.5L503.125 62.475C499.025 67.425 493.75 69.9 487.3 69.9C481.65 69.9 477.25 67.925 474.1 63.975C471 60.025 469.875 55.2 470.725 49.5C471.575 43.75 474.1 39.175 478.3 35.775C482.55 32.325 487.175 30.6 492.175 30.6C495.375 30.6 498.325 31.375 501.025 32.925C503.775 34.425 505.8 36.6 507.1 39.45L508.525 31.5ZM505.15 50.775V50.625L505.225 50.25C505.975 45.7 505.025 42.1 502.375 39.45C499.725 36.75 496.45 35.4 492.55 35.4C488.65 35.4 485.025 36.725 481.675 39.375C478.375 41.975 476.375 45.475 475.675 49.875C474.975 54.225 475.8 57.85 478.15 60.75C480.55 63.65 483.9 65.1 488.2 65.1C492.25 65.1 495.875 63.8 499.075 61.2C502.275 58.55 504.3 55.075 505.15 50.775ZM540.9 30.6C546.55 30.6 550.85 32.55 553.8 36.45C556.8 40.35 557.75 45 556.65 50.4C556.5 51.3 556.3 52.075 556.05 52.725H523.275C523.125 56.525 524.175 59.55 526.425 61.8C528.725 64 531.85 65.1 535.8 65.1C541.55 65.1 545.975 62.95 549.075 58.65L552.975 61.2C551.175 63.95 548.625 66.1 545.325 67.65C542.075 69.15 538.675 69.9 535.125 69.9C529.325 69.9 524.875 67.95 521.775 64.05C518.675 60.15 517.625 55.3 518.625 49.5C519.575 44 522.15 39.475 526.35 35.925C530.6 32.375 535.45 30.6 540.9 30.6ZM524.025 47.925H551.925C552.225 43.825 551.325 40.725 549.225 38.625C547.125 36.475 544.25 35.4 540.6 35.4C536.65 35.4 533.175 36.55 530.175 38.85C527.225 41.1 525.175 44.125 524.025 47.925Z" fill="white"/>
<path d="M32.1049 7.85841C39.9154 0.047928 52.5786 0.047928 60.3891 7.85841L86.6362 34.1045C94.4467 41.915 94.4467 54.5792 86.6362 62.3897L60.3891 88.6358C52.5786 96.4462 39.9154 96.4462 32.1049 88.6358L5.85786 62.3897C-1.95262 54.5792 -1.95262 41.915 5.85786 34.1045L32.1049 7.85841ZM45.7006 17.6738C43.8176 17.6738 41.9953 18.3412 40.5571 19.5567L40.5415 19.5694L23.1684 34.458C22.2835 35.2061 21.5722 36.1384 21.0844 37.1895C20.5967 38.2406 20.344 39.3862 20.3442 40.5449V62.9014C20.3444 65.0144 21.1841 67.0411 22.6782 68.5352C24.1724 70.0292 26.1989 70.8691 28.312 70.8692H63.0883C65.2015 70.8691 67.2288 70.0294 68.7231 68.5352C70.2171 67.0411 71.0569 65.0143 71.0571 62.9014V40.5449C71.0573 39.3862 70.8045 38.2406 70.3168 37.1895C69.8901 36.2697 69.2917 35.441 68.5561 34.7471L68.2319 34.458L50.8598 19.5694L50.8442 19.5567L50.5698 19.335C49.1777 18.2602 47.4659 17.6739 45.7006 17.6738ZM45.7006 23.6738C46.1075 23.6739 46.5031 23.7997 46.8334 24.0322L46.9711 24.1387L64.3432 39.0274C64.3482 39.0316 64.3538 39.0358 64.3588 39.0401C64.5773 39.2247 64.753 39.4554 64.8735 39.7149C64.9939 39.9744 65.0571 40.2578 65.0571 40.544V62.9014C65.0569 63.4231 64.8488 63.9241 64.4799 64.293C64.1109 64.6617 63.61 64.8691 63.0883 64.8692H56.1528V47.9971C56.1528 46.5428 55.5746 45.1476 54.5463 44.1192C53.5179 43.0908 52.1228 42.5128 50.6684 42.5127H40.7329C39.2784 42.5127 37.8834 43.0907 36.8549 44.1192C35.8265 45.1476 35.2485 46.5426 35.2485 47.9971V64.8692H28.312C27.7902 64.8691 27.2894 64.6618 26.9204 64.293C26.5515 63.9241 26.3444 63.4231 26.3442 62.9014V40.544C26.3441 40.2578 26.4064 39.9744 26.5268 39.7149C26.6473 39.4553 26.823 39.2248 27.0415 39.0401C27.0465 39.0358 27.052 39.0317 27.0571 39.0274L44.4301 24.1387C44.7853 23.8385 45.2356 23.6738 45.7006 23.6738ZM50.1528 64.8692H41.2485V48.5127H50.1528V64.8692Z" fill="#04C147"/>
</svg>
