<svg width="502" height="93" viewBox="0 0 502 93" fill="none" xmlns="http://www.w3.org/2000/svg">
<path d="M162.4 18.4997L160.19 31.1097H149.465L143.68 63.9997H130.68L136.465 31.1097H125.74L127.95 18.4997H162.4ZM173.872 30.5897C178.898 30.5897 182.755 32.258 185.442 35.5947C188.172 38.9313 189.125 42.9397 188.302 47.6197C188.085 49.0063 187.673 50.4147 187.067 51.8447H165.877C166.57 54.0113 168.498 55.0947 171.662 55.0947C174.132 55.0947 176.125 54.4013 177.642 53.0147L184.597 60.0347C180.827 63.2847 176.147 64.9097 170.557 64.9097C164.707 64.9097 160.373 63.198 157.557 59.7747C154.74 56.3513 153.765 52.1263 154.632 47.0997C155.412 42.333 157.6 38.3897 161.197 35.2697C164.793 32.1497 169.018 30.5897 173.872 30.5897ZM167.047 44.1097H177.772C177.598 41.5097 176.147 40.2097 173.417 40.2097C170.513 40.2097 168.39 41.5097 167.047 44.1097ZM215.454 30.5897C218.921 30.5897 221.543 31.868 223.319 34.4247C225.139 36.938 225.638 40.5347 224.814 45.2147L221.499 63.9997H209.474L212.529 46.5147C213.049 43.6113 211.966 42.1597 209.279 42.1597C206.506 42.1597 204.773 43.7197 204.079 46.8397L201.024 63.9997H188.999L194.719 31.4997H206.744L206.159 34.6847C208.673 31.9547 211.771 30.5897 215.454 30.5897ZM254.145 31.4997H266.17L260.45 63.9997H248.425L248.945 61.1397C246.432 63.653 243.399 64.9097 239.845 64.9097C235.512 64.9097 232.24 63.2197 230.03 59.8397C227.864 56.4597 227.105 52.3863 227.755 47.6197C228.405 42.8963 230.247 38.888 233.28 35.5947C236.357 32.258 240.149 30.5897 244.655 30.5897C248.815 30.5897 251.762 32.1063 253.495 35.1397L254.145 31.4997ZM244.46 53.8597C246.237 53.8597 247.71 53.318 248.88 52.2347C250.094 51.1513 250.874 49.7213 251.22 47.9447L251.285 47.7497C251.589 45.973 251.329 44.5213 250.505 43.3947C249.682 42.2247 248.382 41.6397 246.605 41.6397C244.829 41.6397 243.312 42.203 242.055 43.3297C240.799 44.4563 240.019 45.9297 239.715 47.7497C239.412 49.5263 239.672 50.9997 240.495 52.1697C241.319 53.2963 242.64 53.8597 244.46 53.8597ZM292.134 30.5897C295.601 30.5897 298.222 31.868 299.999 34.4247C301.819 36.938 302.317 40.5347 301.494 45.2147L298.179 63.9997H286.154L289.209 46.5147C289.729 43.6113 288.646 42.1597 285.959 42.1597C283.186 42.1597 281.452 43.7197 280.759 46.8397L277.704 63.9997H265.679L271.399 31.4997H283.424L282.839 34.6847C285.352 31.9547 288.451 30.5897 292.134 30.5897ZM321.397 42.9397L320.162 49.9597C319.902 51.563 320.205 52.538 321.072 52.8847C321.939 53.2313 323.715 53.3397 326.402 53.2097L324.517 63.9997C318.017 64.9963 313.402 64.3897 310.672 62.1797C307.942 59.9697 307.054 56.113 308.007 50.6097L309.372 42.9397H304.822L306.837 31.4997H311.387L312.362 25.9747L324.972 22.3997L323.412 31.4997H330.237L328.222 42.9397H321.397ZM364.582 22.7897H343.457L340.532 39.5597H360.682L359.902 43.8497H339.752L336.242 63.9997H331.692L339.687 18.4997H365.362L364.582 22.7897ZM379.899 64.7797C375.306 64.7797 371.514 63.198 368.524 60.0347C365.578 56.8713 364.559 52.668 365.469 47.4247C366.379 42.1813 368.806 38.0863 372.749 35.1397C376.736 32.193 381.026 30.7197 385.619 30.7197C390.083 30.7197 393.744 32.323 396.604 35.5297C399.508 38.693 400.504 42.853 399.594 48.0097C398.988 51.6497 397.623 54.7697 395.499 57.3697C393.376 59.9697 390.971 61.8547 388.284 63.0247C385.641 64.1947 382.846 64.7797 379.899 64.7797ZM380.289 60.6197C383.756 60.6197 386.963 59.4713 389.909 57.1747C392.856 54.878 394.676 51.6713 395.369 47.5547C396.063 43.6113 395.326 40.513 393.159 38.2597C391.036 36.0063 388.263 34.8797 384.839 34.8797C381.373 34.923 378.166 36.0713 375.219 38.3247C372.316 40.578 370.496 43.7197 369.759 47.7497C369.066 51.823 369.781 55.008 371.904 57.3047C374.071 59.558 376.866 60.663 380.289 60.6197ZM413.207 36.0497C416.11 32.3663 419.837 30.6763 424.387 30.9797L423.607 35.1397C420.66 35.1397 418.06 36.0063 415.807 37.7397C413.553 39.473 412.102 42.203 411.452 45.9297L408.267 63.9997H403.977L409.697 31.4997H413.987L413.207 36.0497ZM457.01 31.4997H461.3L455.84 62.6997C454.974 67.5097 452.85 71.2147 449.47 73.8147C446.09 76.458 441.995 77.7797 437.185 77.7797C433.762 77.7797 430.815 77.0863 428.345 75.6997C425.875 74.313 424.055 72.363 422.885 69.8497L426.72 67.8997C428.28 71.713 431.834 73.6197 437.38 73.6197C441.324 73.6197 444.509 72.6663 446.935 70.7597C449.405 68.853 450.944 66.1663 451.55 62.6997L452.33 58.3447C448.777 62.6347 444.205 64.7797 438.615 64.7797C433.719 64.7797 429.905 63.068 427.175 59.6447C424.489 56.2213 423.514 52.0397 424.25 47.0997C424.987 42.1163 427.175 38.1513 430.815 35.2047C434.499 32.2147 438.507 30.7197 442.84 30.7197C445.614 30.7197 448.17 31.3913 450.51 32.7347C452.894 34.0347 454.649 35.9197 455.775 38.3897L457.01 31.4997ZM454.085 48.2047V48.0747L454.15 47.7497C454.8 43.8063 453.977 40.6863 451.68 38.3897C449.384 36.0497 446.545 34.8797 443.165 34.8797C439.785 34.8797 436.644 36.028 433.74 38.3247C430.88 40.578 429.147 43.6113 428.54 47.4247C427.934 51.1947 428.649 54.3363 430.685 56.8497C432.765 59.363 435.669 60.6197 439.395 60.6197C442.905 60.6197 446.047 59.493 448.82 57.2397C451.594 54.943 453.349 51.9313 454.085 48.2047ZM485.069 30.7197C489.966 30.7197 493.692 32.4097 496.249 35.7897C498.849 39.1697 499.672 43.1997 498.719 47.8797C498.589 48.6597 498.416 49.3313 498.199 49.8947H469.794C469.664 53.188 470.574 55.8097 472.524 57.7597C474.517 59.6663 477.226 60.6197 480.649 60.6197C485.632 60.6197 489.467 58.7563 492.154 55.0297L495.534 57.2397C493.974 59.623 491.764 61.4863 488.904 62.8297C486.087 64.1297 483.141 64.7797 480.064 64.7797C475.037 64.7797 471.181 63.0897 468.494 59.7097C465.807 56.3297 464.897 52.1263 465.764 47.0997C466.587 42.333 468.819 38.4113 472.459 35.3347C476.142 32.258 480.346 30.7197 485.069 30.7197ZM470.444 45.7347H494.624C494.884 42.1813 494.104 39.4947 492.284 37.6747C490.464 35.8113 487.972 34.8797 484.809 34.8797C481.386 34.8797 478.374 35.8763 475.774 37.8697C473.217 39.8197 471.441 42.4413 470.444 45.7347Z" fill="white"/>
<path d="M32.1049 5.85785C39.9154 -1.95264 52.5786 -1.95264 60.3891 5.85785L86.6362 32.1039C94.4467 39.9144 94.4467 52.5786 86.6362 60.3891L60.3891 86.6352C52.5786 94.4457 39.9154 94.4457 32.1049 86.6352L5.85785 60.3891C-1.95263 52.5786 -1.95263 39.9144 5.85785 32.1039L32.1049 5.85785ZM45.7006 15.6733C43.8176 15.6733 41.9952 16.3406 40.5571 17.5561L40.5414 17.5688L23.1684 32.4575C22.2834 33.2055 21.5722 34.1378 21.0844 35.1889C20.5967 36.2401 20.344 37.3856 20.3442 38.5444V60.9008C20.3444 63.0138 21.184 65.0405 22.6782 66.5346C24.1724 68.0287 26.1989 68.8685 28.312 68.8686H63.0883C65.2015 68.8686 67.2288 68.0288 68.7231 66.5346C70.2171 65.0405 71.0569 63.0137 71.0571 60.9008V38.5444C71.0573 37.3856 70.8045 36.2401 70.3168 35.1889C69.8901 34.2692 69.2917 33.4404 68.5561 32.7465L68.2319 32.4575L50.8598 17.5688L50.8442 17.5561L50.5698 17.3344C49.1777 16.2596 47.4659 15.6733 45.7006 15.6733ZM45.7006 21.6733C46.1075 21.6733 46.5031 21.7991 46.8334 22.0317L46.9711 22.1381L64.3432 37.0268C64.3482 37.0311 64.3538 37.0352 64.3588 37.0395C64.5772 37.2242 64.753 37.4549 64.8735 37.7143C64.9939 37.9739 65.0571 38.2573 65.0571 38.5434V60.9008C65.0569 61.4225 64.8488 61.9235 64.4799 62.2924C64.1109 62.6612 63.61 62.8686 63.0883 62.8686H56.1528V45.9965C56.1528 44.5422 55.5746 43.147 54.5463 42.1186C53.5179 41.0902 52.1228 40.5122 50.6684 40.5121H40.7328C39.2784 40.5121 37.8834 41.0901 36.8549 42.1186C35.8265 43.147 35.2485 44.5421 35.2485 45.9965V62.8686H28.312C27.7902 62.8685 27.2893 62.6613 26.9203 62.2924C26.5515 61.9235 26.3444 61.4225 26.3442 60.9008V38.5434C26.3441 38.2572 26.4064 37.9739 26.5268 37.7143C26.6473 37.4548 26.8229 37.2242 27.0414 37.0395C27.0465 37.0352 27.052 37.0311 27.0571 37.0268L44.4301 22.1381C44.7853 21.838 45.2356 21.6733 45.7006 21.6733ZM50.1528 62.8686H41.2485V46.5121H50.1528V62.8686Z" fill="#04C147"/>
</svg>
