<svg width="502" height="93" viewBox="0 0 502 93" fill="none" xmlns="http://www.w3.org/2000/svg">
<path d="M162.399 18.5L160.189 31.11H149.464L143.679 64H130.679L136.464 31.11H125.739L127.949 18.5H162.399ZM173.871 30.59C178.898 30.59 182.754 32.2583 185.441 35.595C188.171 38.9317 189.124 42.94 188.301 47.62C188.084 49.0067 187.673 50.415 187.066 51.845H165.876C166.569 54.0117 168.498 55.095 171.661 55.095C174.131 55.095 176.124 54.4017 177.641 53.015L184.596 60.035C180.826 63.285 176.146 64.91 170.556 64.91C164.706 64.91 160.373 63.1983 157.556 59.775C154.739 56.3517 153.764 52.1267 154.631 47.1C155.411 42.3333 157.599 38.39 161.196 35.27C164.793 32.15 169.018 30.59 173.871 30.59ZM167.046 44.11H177.771C177.598 41.51 176.146 40.21 173.416 40.21C170.513 40.21 168.389 41.51 167.046 44.11ZM215.454 30.59C218.92 30.59 221.542 31.8683 223.319 34.425C225.139 36.9383 225.637 40.535 224.814 45.215L221.499 64H209.474L212.529 46.515C213.049 43.6117 211.965 42.16 209.279 42.16C206.505 42.16 204.772 43.72 204.079 46.84L201.024 64H188.999L194.719 31.5H206.744L206.159 34.685C208.672 31.955 211.77 30.59 215.454 30.59ZM254.144 31.5H266.169L260.449 64H248.424L248.944 61.14C246.431 63.6533 243.398 64.91 239.844 64.91C235.511 64.91 232.239 63.22 230.029 59.84C227.863 56.46 227.104 52.3867 227.754 47.62C228.404 42.8967 230.246 38.8883 233.279 35.595C236.356 32.2583 240.148 30.59 244.654 30.59C248.814 30.59 251.761 32.1067 253.494 35.14L254.144 31.5ZM244.459 53.86C246.236 53.86 247.709 53.3183 248.879 52.235C250.093 51.1517 250.873 49.7217 251.219 47.945L251.284 47.75C251.588 45.9733 251.328 44.5217 250.504 43.395C249.681 42.225 248.381 41.64 246.604 41.64C244.828 41.64 243.311 42.2033 242.054 43.33C240.798 44.4567 240.018 45.93 239.714 47.75C239.411 49.5267 239.671 51 240.494 52.17C241.318 53.2967 242.639 53.86 244.459 53.86ZM292.133 30.59C295.6 30.59 298.222 31.8683 299.998 34.425C301.818 36.9383 302.317 40.535 301.493 45.215L298.178 64H286.153L289.208 46.515C289.728 43.6117 288.645 42.16 285.958 42.16C283.185 42.16 281.452 43.72 280.758 46.84L277.703 64H265.678L271.398 31.5H283.423L282.838 34.685C285.352 31.955 288.45 30.59 292.133 30.59ZM321.396 42.94L320.161 49.96C319.901 51.5633 320.204 52.5383 321.071 52.885C321.938 53.2317 323.714 53.34 326.401 53.21L324.516 64C318.016 64.9967 313.401 64.39 310.671 62.18C307.941 59.97 307.053 56.1133 308.006 50.61L309.371 42.94H304.821L306.836 31.5H311.386L312.361 25.975L324.971 22.4L323.411 31.5H330.236L328.221 42.94H321.396ZM364.581 22.79H343.456L340.531 39.56H360.681L359.901 43.85H339.751L336.241 64H331.691L339.686 18.5H365.361L364.581 22.79ZM379.899 64.78C375.305 64.78 371.514 63.1983 368.524 60.035C365.577 56.8717 364.559 52.6683 365.469 47.425C366.379 42.1817 368.805 38.0867 372.749 35.14C376.735 32.1933 381.025 30.72 385.619 30.72C390.082 30.72 393.744 32.3233 396.604 35.53C399.507 38.6933 400.504 42.8533 399.594 48.01C398.987 51.65 397.622 54.77 395.499 57.37C393.375 59.97 390.97 61.855 388.284 63.025C385.64 64.195 382.845 64.78 379.899 64.78ZM380.289 60.62C383.755 60.62 386.962 59.4717 389.909 57.175C392.855 54.8783 394.675 51.6717 395.369 47.555C396.062 43.6117 395.325 40.5133 393.159 38.26C391.035 36.0067 388.262 34.88 384.839 34.88C381.372 34.9233 378.165 36.0717 375.219 38.325C372.315 40.5783 370.495 43.72 369.759 47.75C369.065 51.8233 369.78 55.0083 371.904 57.305C374.07 59.5583 376.865 60.6633 380.289 60.62ZM413.206 36.05C416.109 32.3667 419.836 30.6767 424.386 30.98L423.606 35.14C420.659 35.14 418.059 36.0067 415.806 37.74C413.553 39.4733 412.101 42.2033 411.451 45.93L408.266 64H403.976L409.696 31.5H413.986L413.206 36.05ZM457.009 31.5H461.299L455.839 62.7C454.973 67.51 452.849 71.215 449.469 73.815C446.089 76.4583 441.994 77.78 437.184 77.78C433.761 77.78 430.814 77.0867 428.344 75.7C425.874 74.3133 424.054 72.3633 422.884 69.85L426.719 67.9C428.279 71.7133 431.833 73.62 437.379 73.62C441.323 73.62 444.508 72.6667 446.934 70.76C449.404 68.8533 450.943 66.1667 451.549 62.7L452.329 58.345C448.776 62.635 444.204 64.78 438.614 64.78C433.718 64.78 429.904 63.0683 427.174 59.645C424.488 56.2217 423.513 52.04 424.249 47.1C424.986 42.1167 427.174 38.1517 430.814 35.205C434.498 32.215 438.506 30.72 442.839 30.72C445.613 30.72 448.169 31.3917 450.509 32.735C452.893 34.035 454.648 35.92 455.774 38.39L457.009 31.5ZM454.084 48.205V48.075L454.149 47.75C454.799 43.8067 453.976 40.6867 451.679 38.39C449.383 36.05 446.544 34.88 443.164 34.88C439.784 34.88 436.643 36.0283 433.739 38.325C430.879 40.5783 429.146 43.6117 428.539 47.425C427.933 51.195 428.648 54.3367 430.684 56.85C432.764 59.3633 435.668 60.62 439.394 60.62C442.904 60.62 446.046 59.4933 448.819 57.24C451.593 54.9433 453.348 51.9317 454.084 48.205ZM485.068 30.72C489.965 30.72 493.691 32.41 496.248 35.79C498.848 39.17 499.671 43.2 498.718 47.88C498.588 48.66 498.415 49.3317 498.198 49.895H469.793C469.663 53.1883 470.573 55.81 472.523 57.76C474.516 59.6667 477.225 60.62 480.648 60.62C485.631 60.62 489.466 58.7567 492.153 55.03L495.533 57.24C493.973 59.6233 491.763 61.4867 488.903 62.83C486.086 64.13 483.14 64.78 480.063 64.78C475.036 64.78 471.18 63.09 468.493 59.71C465.806 56.33 464.896 52.1267 465.763 47.1C466.586 42.3333 468.818 38.4117 472.458 35.335C476.141 32.2583 480.345 30.72 485.068 30.72ZM470.443 45.735H494.623C494.883 42.1817 494.103 39.495 492.283 37.675C490.463 35.8117 487.971 34.88 484.808 34.88C481.385 34.88 478.373 35.8767 475.773 37.87C473.216 39.82 471.44 42.4417 470.443 45.735Z" fill="black"/>
<path d="M32.1045 5.85742C39.9149 -1.95273 52.5783 -1.95276 60.3887 5.85742L86.6357 32.1045C94.4461 39.9149 94.446 52.5782 86.6357 60.3887L60.3887 86.6357C52.5782 94.4462 39.915 94.4462 32.1045 86.6357L5.85742 60.3887C-1.95283 52.5782 -1.95299 39.9149 5.85742 32.1045L32.1045 5.85742ZM45.7002 15.6729C43.8174 15.6729 41.9948 16.3404 40.5566 17.5557L40.541 17.5684L23.168 32.457C22.2831 33.205 21.5718 34.1375 21.084 35.1885C20.5963 36.2396 20.3436 37.3852 20.3438 38.5439V60.9004C20.3439 63.0135 21.1835 65.04 22.6777 66.5342C24.172 68.0284 26.1984 68.8681 28.3115 68.8682H63.0879C65.201 68.8681 67.2285 68.0284 68.7227 66.5342C70.2165 65.04 71.0565 63.0133 71.0566 60.9004V38.5439C71.0568 37.3852 70.8041 36.2396 70.3164 35.1885C69.8896 34.2687 69.2913 33.44 68.5557 32.7461L68.2314 32.457L50.8594 17.5684L50.8438 17.5557L50.5693 17.334C49.1774 16.2592 47.4654 15.673 45.7002 15.6729ZM45.7002 21.6729C46.1069 21.673 46.5027 21.7988 46.833 22.0312L46.9707 22.1377L64.3428 37.0264C64.3479 37.0307 64.3533 37.0347 64.3584 37.0391C64.5769 37.2237 64.7526 37.4544 64.873 37.7139C64.9935 37.9734 65.0566 38.2568 65.0566 38.543V60.9004C65.0565 61.422 64.8482 61.923 64.4795 62.292C64.1105 62.6608 63.6095 62.8681 63.0879 62.8682H56.1514V45.9961C56.1512 44.5418 55.5732 43.1465 54.5449 42.1182C53.5165 41.09 52.1212 40.5117 50.667 40.5117H40.7314C39.2772 40.5118 37.8819 41.0898 36.8535 42.1182C35.8252 43.1465 35.2472 44.5418 35.2471 45.9961V62.8682H28.3115C27.7897 62.8681 27.2889 62.661 26.9199 62.292C26.5509 61.923 26.3439 61.4222 26.3438 60.9004V38.543C26.3437 38.2568 26.4059 37.9734 26.5264 37.7139C26.6468 37.4545 26.8226 37.2237 27.041 37.0391C27.046 37.0349 27.0517 37.0306 27.0566 37.0264L44.4297 22.1377C44.7848 21.8377 45.2353 21.6729 45.7002 21.6729ZM50.1514 62.8682H41.2471V46.5117H50.1514V62.8682Z" fill="#04C147"/>
</svg>
