<svg width="561" height="96" viewBox="0 0 561 96" fill="none" xmlns="http://www.w3.org/2000/svg">
<path d="M168.589 16.5L166.039 31.05H153.664L146.989 69H131.989L138.664 31.05H126.289L128.839 16.5H168.589ZM181.826 30.45C187.626 30.45 192.076 32.375 195.176 36.225C198.326 40.075 199.426 44.7 198.476 50.1C198.226 51.7 197.751 53.325 197.051 54.975H172.601C173.401 57.475 175.626 58.725 179.276 58.725C182.126 58.725 184.426 57.925 186.176 56.325L194.201 64.425C189.851 68.175 184.451 70.05 178.001 70.05C171.251 70.05 166.251 68.075 163.001 64.125C159.751 60.175 158.626 55.3 159.626 49.5C160.526 44 163.051 39.45 167.201 35.85C171.351 32.25 176.226 30.45 181.826 30.45ZM173.951 46.05H186.326C186.126 43.05 184.451 41.55 181.301 41.55C177.951 41.55 175.501 43.05 173.951 46.05ZM229.806 30.45C233.806 30.45 236.831 31.925 238.881 34.875C240.981 37.775 241.556 41.925 240.606 47.325L236.781 69H222.906L226.431 48.825C227.031 45.475 225.781 43.8 222.681 43.8C219.481 43.8 217.481 45.6 216.681 49.2L213.156 69H199.281L205.881 31.5H219.756L219.081 35.175C221.981 32.025 225.556 30.45 229.806 30.45ZM274.449 31.5H288.324L281.724 69H267.849L268.449 65.7C265.549 68.6 262.049 70.05 257.949 70.05C252.949 70.05 249.174 68.1 246.624 64.2C244.124 60.3 243.249 55.6 243.999 50.1C244.749 44.65 246.874 40.025 250.374 36.225C253.924 32.375 258.299 30.45 263.499 30.45C268.299 30.45 271.699 32.2 273.699 35.7L274.449 31.5ZM263.274 57.3C265.324 57.3 267.024 56.675 268.374 55.425C269.774 54.175 270.674 52.525 271.074 50.475L271.149 50.25C271.499 48.2 271.199 46.525 270.249 45.225C269.299 43.875 267.799 43.2 265.749 43.2C263.699 43.2 261.949 43.85 260.499 45.15C259.049 46.45 258.149 48.15 257.799 50.25C257.449 52.3 257.749 54 258.699 55.35C259.649 56.65 261.174 57.3 263.274 57.3ZM318.282 30.45C322.282 30.45 325.307 31.925 327.357 34.875C329.457 37.775 330.032 41.925 329.082 47.325L325.257 69H311.382L314.907 48.825C315.507 45.475 314.257 43.8 311.157 43.8C307.957 43.8 305.957 45.6 305.157 49.2L301.632 69H287.757L294.357 31.5H308.232L307.557 35.175C310.457 32.025 314.032 30.45 318.282 30.45ZM352.047 44.7L350.622 52.8C350.322 54.65 350.672 55.775 351.672 56.175C352.672 56.575 354.722 56.7 357.822 56.55L355.647 69C348.147 70.15 342.822 69.45 339.672 66.9C336.522 64.35 335.497 59.9 336.597 53.55L338.172 44.7H332.922L335.247 31.5H340.497L341.622 25.125L356.172 21L354.372 31.5H362.247L359.922 44.7H352.047ZM401.876 21.45H377.501L374.126 40.8H397.376L396.476 45.75H373.226L369.176 69H363.926L373.151 16.5H402.776L401.876 21.45ZM419.55 69.9C414.25 69.9 409.875 68.075 406.425 64.425C403.025 60.775 401.85 55.925 402.9 49.875C403.95 43.825 406.75 39.1 411.3 35.7C415.9 32.3 420.85 30.6 426.15 30.6C431.3 30.6 435.525 32.45 438.825 36.15C442.175 39.8 443.325 44.6 442.275 50.55C441.575 54.75 440 58.35 437.55 61.35C435.1 64.35 432.325 66.525 429.225 67.875C426.175 69.225 422.95 69.9 419.55 69.9ZM420 65.1C424 65.1 427.7 63.775 431.1 61.125C434.5 58.475 436.6 54.775 437.4 50.025C438.2 45.475 437.35 41.9 434.85 39.3C432.4 36.7 429.2 35.4 425.25 35.4C421.25 35.45 417.55 36.775 414.15 39.375C410.8 41.975 408.7 45.6 407.85 50.25C407.05 54.95 407.875 58.625 410.325 61.275C412.825 63.875 416.05 65.15 420 65.1ZM457.982 36.75C461.332 32.5 465.632 30.55 470.882 30.9L469.982 35.7C466.582 35.7 463.582 36.7 460.982 38.7C458.382 40.7 456.707 43.85 455.957 48.15L452.282 69H447.332L453.932 31.5H458.882L457.982 36.75ZM508.524 31.5H513.474L507.174 67.5C506.174 73.05 503.724 77.325 499.824 80.325C495.924 83.375 491.199 84.9 485.649 84.9C481.699 84.9 478.299 84.1 475.449 82.5C472.599 80.9 470.499 78.65 469.149 75.75L473.574 73.5C475.374 77.9 479.474 80.1 485.874 80.1C490.424 80.1 494.099 79 496.899 76.8C499.749 74.6 501.524 71.5 502.224 67.5L503.124 62.475C499.024 67.425 493.749 69.9 487.299 69.9C481.649 69.9 477.249 67.925 474.099 63.975C470.999 60.025 469.874 55.2 470.724 49.5C471.574 43.75 474.099 39.175 478.299 35.775C482.549 32.325 487.174 30.6 492.174 30.6C495.374 30.6 498.324 31.375 501.024 32.925C503.774 34.425 505.799 36.6 507.099 39.45L508.524 31.5ZM505.149 50.775V50.625L505.224 50.25C505.974 45.7 505.024 42.1 502.374 39.45C499.724 36.75 496.449 35.4 492.549 35.4C488.649 35.4 485.024 36.725 481.674 39.375C478.374 41.975 476.374 45.475 475.674 49.875C474.974 54.225 475.799 57.85 478.149 60.75C480.549 63.65 483.899 65.1 488.199 65.1C492.249 65.1 495.874 63.8 499.074 61.2C502.274 58.55 504.299 55.075 505.149 50.775ZM540.899 30.6C546.549 30.6 550.849 32.55 553.799 36.45C556.799 40.35 557.749 45 556.649 50.4C556.499 51.3 556.299 52.075 556.049 52.725H523.274C523.124 56.525 524.174 59.55 526.424 61.8C528.724 64 531.849 65.1 535.799 65.1C541.549 65.1 545.974 62.95 549.074 58.65L552.974 61.2C551.174 63.95 548.624 66.1 545.324 67.65C542.074 69.15 538.674 69.9 535.124 69.9C529.324 69.9 524.874 67.95 521.774 64.05C518.674 60.15 517.624 55.3 518.624 49.5C519.574 44 522.149 39.475 526.349 35.925C530.599 32.375 535.449 30.6 540.899 30.6ZM524.024 47.925H551.924C552.224 43.825 551.324 40.725 549.224 38.625C547.124 36.475 544.249 35.4 540.599 35.4C536.649 35.4 533.174 36.55 530.174 38.85C527.224 41.1 525.174 44.125 524.024 47.925Z" fill="black"/>
<path d="M32.1042 7.85841C39.9147 0.047928 52.5779 0.047928 60.3883 7.85841L86.6354 34.1045C94.4459 41.915 94.4459 54.5792 86.6354 62.3897L60.3883 88.6358C52.5779 96.4462 39.9147 96.4462 32.1042 88.6358L5.8571 62.3897C-1.95338 54.5792 -1.95339 41.915 5.8571 34.1045L32.1042 7.85841ZM45.6999 17.6738C43.8168 17.6738 41.9945 18.3412 40.5563 19.5567L40.5407 19.5694L23.1676 34.458C22.2827 35.2061 21.5714 36.1384 21.0837 37.1895C20.596 38.2406 20.3432 39.3862 20.3434 40.5449V62.9014C20.3436 65.0144 21.1833 67.0411 22.6774 68.5352C24.1716 70.0292 26.1982 70.8691 28.3112 70.8692H63.0876C65.2007 70.8691 67.2281 70.0294 68.7223 68.5352C70.2164 67.0411 71.0561 65.0143 71.0563 62.9014V40.5449C71.0565 39.3862 70.8038 38.2406 70.3161 37.1895C69.8893 36.2697 69.291 35.441 68.5553 34.7471L68.2311 34.458L50.8591 19.5694L50.8434 19.5567L50.569 19.335C49.177 18.2602 47.4652 17.6739 45.6999 17.6738ZM45.6999 23.6738C46.1067 23.6739 46.5023 23.7997 46.8327 24.0322L46.9704 24.1387L64.3424 39.0274C64.3475 39.0316 64.353 39.0358 64.3581 39.0401C64.5765 39.2247 64.7523 39.4554 64.8727 39.7149C64.9931 39.9744 65.0564 40.2578 65.0563 40.544V62.9014C65.0561 63.4231 64.8481 63.9241 64.4792 64.293C64.1101 64.6617 63.6093 64.8691 63.0876 64.8692H56.152V47.9971C56.152 46.5428 55.5738 45.1476 54.5456 44.1192C53.5172 43.0908 52.122 42.5128 50.6676 42.5127H40.7321C39.2776 42.5127 37.8826 43.0907 36.8542 44.1192C35.8257 45.1476 35.2477 46.5426 35.2477 47.9971V64.8692H28.3112C27.7895 64.8691 27.2886 64.6618 26.9196 64.293C26.5507 63.9241 26.3436 63.4231 26.3434 62.9014V40.544C26.3434 40.2578 26.4056 39.9744 26.526 39.7149C26.6465 39.4553 26.8222 39.2248 27.0407 39.0401C27.0457 39.0358 27.0513 39.0317 27.0563 39.0274L44.4294 24.1387C44.7846 23.8385 45.2348 23.6738 45.6999 23.6738ZM50.152 64.8692H41.2477V48.5127H50.152V64.8692Z" fill="#04C147"/>
</svg>
