<svg width="433" height="69" viewBox="0 0 433 69" fill="none" xmlns="http://www.w3.org/2000/svg">
<path d="M42.5889 0.499996L40.0389 15.05H27.6639L20.9889 53H5.98894L12.6639 15.05H0.288941L2.83894 0.499996H42.5889ZM55.8259 14.45C61.6259 14.45 66.0759 16.375 69.1759 20.225C72.3259 24.075 73.4259 28.7 72.4759 34.1C72.2259 35.7 71.7509 37.325 71.0509 38.975H46.6009C47.4009 41.475 49.6259 42.725 53.2759 42.725C56.1259 42.725 58.4259 41.925 60.1759 40.325L68.2009 48.425C63.8509 52.175 58.4509 54.05 52.0009 54.05C45.2509 54.05 40.2509 52.075 37.0009 48.125C33.7509 44.175 32.6259 39.3 33.6259 33.5C34.5259 28 37.0509 23.45 41.2009 19.85C45.3509 16.25 50.2259 14.45 55.8259 14.45ZM47.9509 30.05H60.3259C60.1259 27.05 58.4509 25.55 55.3009 25.55C51.9509 25.55 49.5009 27.05 47.9509 30.05ZM103.806 14.45C107.806 14.45 110.831 15.925 112.881 18.875C114.981 21.775 115.556 25.925 114.606 31.325L110.781 53H96.9059L100.431 32.825C101.031 29.475 99.7809 27.8 96.6809 27.8C93.4809 27.8 91.4809 29.6 90.6809 33.2L87.1559 53H73.2809L79.8809 15.5H93.7559L93.0809 19.175C95.9809 16.025 99.5559 14.45 103.806 14.45ZM148.449 15.5H162.324L155.724 53H141.849L142.449 49.7C139.549 52.6 136.049 54.05 131.949 54.05C126.949 54.05 123.174 52.1 120.624 48.2C118.124 44.3 117.249 39.6 117.999 34.1C118.749 28.65 120.874 24.025 124.374 20.225C127.924 16.375 132.299 14.45 137.499 14.45C142.299 14.45 145.699 16.2 147.699 19.7L148.449 15.5ZM137.274 41.3C139.324 41.3 141.024 40.675 142.374 39.425C143.774 38.175 144.674 36.525 145.074 34.475L145.149 34.25C145.499 32.2 145.199 30.525 144.249 29.225C143.299 27.875 141.799 27.2 139.749 27.2C137.699 27.2 135.949 27.85 134.499 29.15C133.049 30.45 132.149 32.15 131.799 34.25C131.449 36.3 131.749 38 132.699 39.35C133.649 40.65 135.174 41.3 137.274 41.3ZM192.282 14.45C196.282 14.45 199.307 15.925 201.357 18.875C203.457 21.775 204.032 25.925 203.082 31.325L199.257 53H185.382L188.907 32.825C189.507 29.475 188.257 27.8 185.157 27.8C181.957 27.8 179.957 29.6 179.157 33.2L175.632 53H161.757L168.357 15.5H182.232L181.557 19.175C184.457 16.025 188.032 14.45 192.282 14.45ZM226.047 28.7L224.622 36.8C224.322 38.65 224.672 39.775 225.672 40.175C226.672 40.575 228.722 40.7 231.822 40.55L229.647 53C222.147 54.15 216.822 53.45 213.672 50.9C210.522 48.35 209.497 43.9 210.597 37.55L212.172 28.7H206.922L209.247 15.5H214.497L215.622 9.125L230.172 5L228.372 15.5H236.247L233.922 28.7H226.047ZM275.876 5.45H251.501L248.126 24.8H271.376L270.476 29.75H247.226L243.176 53H237.926L247.151 0.499996H276.776L275.876 5.45ZM293.55 53.9C288.25 53.9 283.875 52.075 280.425 48.425C277.025 44.775 275.85 39.925 276.9 33.875C277.95 27.825 280.75 23.1 285.3 19.7C289.9 16.3 294.85 14.6 300.15 14.6C305.3 14.6 309.525 16.45 312.825 20.15C316.175 23.8 317.325 28.6 316.275 34.55C315.575 38.75 314 42.35 311.55 45.35C309.1 48.35 306.325 50.525 303.225 51.875C300.175 53.225 296.95 53.9 293.55 53.9ZM294 49.1C298 49.1 301.7 47.775 305.1 45.125C308.5 42.475 310.6 38.775 311.4 34.025C312.2 29.475 311.35 25.9 308.85 23.3C306.4 20.7 303.2 19.4 299.25 19.4C295.25 19.45 291.55 20.775 288.15 23.375C284.8 25.975 282.7 29.6 281.85 34.25C281.05 38.95 281.875 42.625 284.325 45.275C286.825 47.875 290.05 49.15 294 49.1ZM331.982 20.75C335.332 16.5 339.632 14.55 344.882 14.9L343.982 19.7C340.582 19.7 337.582 20.7 334.982 22.7C332.382 24.7 330.707 27.85 329.957 32.15L326.282 53H321.332L327.932 15.5H332.882L331.982 20.75ZM382.524 15.5H387.474L381.174 51.5C380.174 57.05 377.724 61.325 373.824 64.325C369.924 67.375 365.199 68.9 359.649 68.9C355.699 68.9 352.299 68.1 349.449 66.5C346.599 64.9 344.499 62.65 343.149 59.75L347.574 57.5C349.374 61.9 353.474 64.1 359.874 64.1C364.424 64.1 368.099 63 370.899 60.8C373.749 58.6 375.524 55.5 376.224 51.5L377.124 46.475C373.024 51.425 367.749 53.9 361.299 53.9C355.649 53.9 351.249 51.925 348.099 47.975C344.999 44.025 343.874 39.2 344.724 33.5C345.574 27.75 348.099 23.175 352.299 19.775C356.549 16.325 361.174 14.6 366.174 14.6C369.374 14.6 372.324 15.375 375.024 16.925C377.774 18.425 379.799 20.6 381.099 23.45L382.524 15.5ZM379.149 34.775V34.625L379.224 34.25C379.974 29.7 379.024 26.1 376.374 23.45C373.724 20.75 370.449 19.4 366.549 19.4C362.649 19.4 359.024 20.725 355.674 23.375C352.374 25.975 350.374 29.475 349.674 33.875C348.974 38.225 349.799 41.85 352.149 44.75C354.549 47.65 357.899 49.1 362.199 49.1C366.249 49.1 369.874 47.8 373.074 45.2C376.274 42.55 378.299 39.075 379.149 34.775ZM414.899 14.6C420.549 14.6 424.849 16.55 427.799 20.45C430.799 24.35 431.749 29 430.649 34.4C430.499 35.3 430.299 36.075 430.049 36.725H397.274C397.124 40.525 398.174 43.55 400.424 45.8C402.724 48 405.849 49.1 409.799 49.1C415.549 49.1 419.974 46.95 423.074 42.65L426.974 45.2C425.174 47.95 422.624 50.1 419.324 51.65C416.074 53.15 412.674 53.9 409.124 53.9C403.324 53.9 398.874 51.95 395.774 48.05C392.674 44.15 391.624 39.3 392.624 33.5C393.574 28 396.149 23.475 400.349 19.925C404.599 16.375 409.449 14.6 414.899 14.6ZM398.024 31.925H425.924C426.224 27.825 425.324 24.725 423.224 22.625C421.124 20.475 418.249 19.4 414.599 19.4C410.649 19.4 407.174 20.55 404.174 22.85C401.224 25.1 399.174 28.125 398.024 31.925Z" fill="black"/>
</svg>
